<svg xmlns="http://www.w3.org/2000/svg" viewBox="0 0 128 128">
  <!-- RuleBird Owl Favicon -->
  <rect width="128" height="128" fill="#1e293b" rx="16"/>

  <!-- Owl body -->
  <ellipse cx="64" cy="72" rx="35" ry="40" fill="#64748b"/>

  <!-- Owl head -->
  <circle cx="64" cy="48" r="28" fill="#64748b"/>

  <!-- Eyes (outer) -->
  <circle cx="52" cy="45" r="12" fill="#ffffff"/>
  <circle cx="76" cy="45" r="12" fill="#ffffff"/>

  <!-- Eyes (pupils) -->
  <circle cx="52" cy="46" r="6" fill="#1e293b"/>
  <circle cx="76" cy="46" r="6" fill="#1e293b"/>

  <!-- Beak -->
  <path d="M64 52 L60 58 L68 58 Z" fill="#fb923c"/>

  <!-- Ears/horns -->
  <path d="M42 35 L45 25 L48 35" stroke="#64748b" stroke-width="4" fill="none" stroke-linecap="round"/>
  <path d="M80 35 L83 25 L86 35" stroke="#64748b" stroke-width="4" fill="none" stroke-linecap="round"/>

  <!-- Wings (simplified) -->
  <ellipse cx="40" cy="72" rx="12" ry="25" fill="#475569"/>
  <ellipse cx="88" cy="72" rx="12" ry="25" fill="#475569"/>

  <!-- Feet -->
  <path d="M54 100 L54 110 M54 110 L50 114 M54 110 L58 114" stroke="#fb923c" stroke-width="3" stroke-linecap="round"/>
  <path d="M74 100 L74 110 M74 110 L70 114 M74 110 L78 114" stroke="#fb923c" stroke-width="3" stroke-linecap="round"/>
</svg>